<svg id="Layer_1" data-name="Layer 1" xmlns="http://www.w3.org/2000/svg" viewBox="0 0 1600 2700"><defs><style>.cls-1{font-size:100px;}.cls-1,.cls-12,.cls-13,.cls-15,.cls-16,.cls-2,.cls-3,.cls-4,.cls-6,.cls-7,.cls-8{font-family:TimesNewRomanPSMT, Times New Roman;}.cls-2,.cls-3,.cls-4{font-size:72px;}.cls-3{letter-spacing:-0.06em;}.cls-13,.cls-4{letter-spacing:-0.02em;}.cls-5{letter-spacing:-0.08em;}.cls-6{font-size:900px;}.cls-13,.cls-7{font-size:200px;}.cls-8{font-size:400px;}.cls-9{letter-spacing:-0.04em;}.cls-10{letter-spacing:-0.04em;}.cls-11{font-family:KozGoPr6N-Regular-83pv-RKSJ-H, Kozuka Gothic Pr6N;letter-spacing:-0.01em;}.cls-12{font-size:21px;}.cls-14{letter-spacing:-0.04em;}.cls-15{font-size:1200px;}.cls-16{font-size:300px;}</style></defs><title>Artboard 1</title><text class="cls-1" transform="translate(646.38 726.05)">Hello.</text><text></text><text class="cls-2" transform="translate(662 428)">m</text><text class="cls-2" transform="translate(67.59 148.45) rotate(11.19)">other things</text><text class="cls-2" transform="translate(1284 754)">cool</text><text class="cls-2" transform="translate(152.53 191.09) rotate(7.06)">Florida</text><text class="cls-2" transform="translate(624 175)">i</text><text class="cls-2" transform="translate(420 442)">i</text><text class="cls-2" transform="translate(563 57)">i</text><text class="cls-2" transform="translate(19 353)">i</text><text class="cls-2" transform="matrix(0.89, 0.45, -0.45, 0.89, 741.35, 753.8)">y</text><text class="cls-2" transform="translate(867.67 869.06) rotate(-20.49)">b</text><text class="cls-2" transform="translate(876 804)">E</text><text class="cls-2" transform="translate(1308 910)">l</text><text class="cls-2" transform="translate(674 230)">i</text><text class="cls-2" transform="translate(764 254)">z</text><text class="cls-2" transform="translate(876 672)">a</text><text class="cls-2" transform="translate(507.1 339.78) rotate(-18.82)">b</text><text class="cls-2" transform="translate(598 732)">e</text><text class="cls-2" transform="translate(39 340)">t</text><text class="cls-2" transform="translate(85 516)">h</text><text class="cls-3" transform="translate(456 130)">A</text><text class="cls-2" transform="translate(274 146)">u</text><text class="cls-2" transform="translate(128 252)">b</text><text class="cls-2" transform="translate(112 400)">e</text><text class="cls-2" transform="translate(134 514)">r</text><text class="cls-2" transform="matrix(0.98, -0.19, 0.19, 0.98, 104.84, 557.57)">t</text><text class="cls-2" transform="translate(161 480)">w</text><text class="cls-4" transform="translate(-7 154)">W</text><text class="cls-2" transform="translate(1312.63 830.68) rotate(7.63)">a</text><text class="cls-2" transform="translate(-1 226)">r</text><text class="cls-2" transform="translate(474 302)">r</text><text class="cls-2" transform="translate(316 394)">i</text><text class="cls-2" transform="translate(392 340)">c</text><text class="cls-2" transform="translate(544 376)">k</text><text class="cls-2" transform="translate(772 540)">i</text><text class="cls-2" transform="matrix(0.95, 0.32, -0.32, 0.95, 113.54, 495.88)">t</text><text class="cls-2" transform="translate(1138 568)">‘</text><text class="cls-2" transform="translate(1198.98 662.53) rotate(-31.47)">s</text><text class="cls-2" transform="translate(392 313)">n</text><text class="cls-2" transform="translate(1236 538)">i</text><text class="cls-2" transform="matrix(0.95, -0.31, 0.31, 0.95, 1147.54, 635)">c</text><text class="cls-2" transform="translate(1038 514)">e</text><text class="cls-2" transform="translate(1216 709)">t</text><text class="cls-2" transform="translate(924 822)">o</text><text class="cls-2" transform="translate(714 576)">m</text><text class="cls-2" transform="translate(1165.04 806.39) rotate(27.83)">e</text><text class="cls-2" transform="translate(1062 682)">e</text><text class="cls-2" transform="translate(1062 568)">t</text><text class="cls-2" transform="translate(1168 491)">y</text><text class="cls-2" transform="translate(1012 470)">o</text><text class="cls-2" transform="translate(474 182)">u</text><text class="cls-2" transform="matrix(0.97, 0.24, -0.24, 0.97, 51.51, 90.69)">Brooklyn</text><text class="cls-2" transform="translate(173.12 272.25) rotate(-14.41)">Savannah</text><text class="cls-2" transform="translate(190 272)">San Francisco</text><text class="cls-2" transform="translate(128.94 313.26) rotate(-6.31)">Bordeaux</text><text class="cls-2" transform="translate(576 216)">seals</text><text class="cls-2" transform="translate(160.95 422.63) rotate(5.82)">lots of seals</text><text class="cls-2" transform="translate(680 640)">oyster</text><text class="cls-2" transform="translate(782 423)">Mary</text><text class="cls-2" transform="translate(815 576)"><tspan class="cls-5">W</tspan><tspan x="62.19" y="0">arrick</tspan></text><text class="cls-6" transform="translate(448.1 577.67) rotate(9.89)">!</text><text class="cls-7" transform="matrix(0.83, 0.55, -0.55, 0.83, 435.66, 102.74)">?</text><text class="cls-1" transform="translate(688 340)">si!</text><text class="cls-1" transform="translate(1348 910)">oui!</text><text class="cls-1" transform="translate(68 230)">Barcelona</text><text class="cls-1" transform="translate(506.61 110.33) rotate(173.07)">Gainesville</text><text class="cls-1" transform="translate(924 726)">who</text><text class="cls-1" transform="translate(1012 782)">are</text><text class="cls-1" transform="translate(1098 869)">you?</text><text class="cls-1" transform="translate(741.57 439.68) rotate(-28.24)">~</text><text class="cls-8" transform="translate(313.87 598.85) rotate(-26.78)">&amp;</text><text class="cls-1" transform="translate(984 644)">I</text><text class="cls-1" transform="translate(166 390)">Lorem ipsum</text><text class="cls-1" transform="translate(80 148)">Poland</text><text class="cls-1" transform="translate(265 313)">caviar</text><text class="cls-1" transform="translate(-1 101)">salmon</text><text class="cls-1" transform="translate(47.79 237.1) rotate(-20.15)">Cinderella</text><text class="cls-1" transform="translate(189.92 145.9) rotate(13.24)">Medium rare</text><text class="cls-1" transform="translate(6 48)">Lorem ipsum</text><text class="cls-8" transform="translate(135.41 387.74) rotate(-17.37)">a</text><text class="cls-7" transform="translate(772.12 428.12)">*</text><text class="cls-7" transform="translate(798.13 170.12)">{</text><text class="cls-7" transform="translate(443.63 659.12)">}</text><text class="cls-7" transform="translate(83.06 178.62) rotate(20.23)">&lt;/div&gt;</text><text class="cls-7" transform="translate(-16.87 90.13)">tea</text><text class="cls-7" transform="translate(333.12 182.12)">13</text><text class="cls-7" transform="translate(58.09 389.13)">9</text><text class="cls-7" transform="translate(5.64 170.12)">star</text><text class="cls-7" transform="translate(892.58 339.62)">o</text><text class="cls-1" transform="translate(-16.44 126.12)">Blue<tspan class="cls-9" x="188.87" y="0">T</tspan><tspan x="246.44" y="0">una4</tspan></text><text class="cls-1" transform="matrix(1, -0.09, 0.09, 1, 38.56, 80.51)">const</text><text class="cls-1" transform="translate(18.64 79.27) rotate(-15.81)">let</text><text class="cls-1" transform="translate(81.14 444.09)">for</text><text class="cls-1" transform="translate(232.67 68.67) rotate(5.56)">while</text><text class="cls-1" transform="translate(-1.37 539.57)">[i]</text><text class="cls-1" transform="translate(502.63 126.12)">index</text><text class="cls-1" transform="translate(814.63 836.12)">!</text><text class="cls-1" transform="translate(714.12 216.12)">!</text><text class="cls-1" transform="translate(-0.89 342.12)">!</text><text class="cls-1" transform="translate(-7.87 47.62)">jabberwocky</text><text class="cls-1" transform="matrix(0.97, 0.23, -0.23, 0.97, 80.36, 304.6)">grapefruit</text><text class="cls-1" transform="translate(-0.89 190.62)">28</text><text class="cls-1" transform="translate(151.64 555.62)"><tspan class="cls-10">1</tspan><tspan x="46.29" y="0">1</tspan></text><text class="cls-1" transform="translate(921.84 418.43) rotate(90.98)">{</text><text class="cls-1" transform="translate(720.13 495.62)">%</text><text class="cls-1" transform="translate(6.12 61.12)">cauchemar!</text><text class="cls-1" transform="translate(701.89 759.86) rotate(88.97)">}</text><text class="cls-1" transform="translate(41.08 642.61)">¯\_(<tspan class="cls-11" x="159.08" y="0">ツ</tspan><tspan x="258.08" y="0">)_/¯</tspan></text><text class="cls-2" transform="translate(506.6 174.62)">ola</text><text class="cls-12" transform="translate(425.41 116.42) rotate(-16.12)">violet</text><text class="cls-13" transform="translate(-0.91 495.13)">V</text><text class="cls-7" transform="matrix(0.64, -0.77, 0.77, 0.64, 67.57, 293.65)">8</text><text class="cls-7" transform="matrix(-0.44, 0.9, -0.9, -0.44, 304.02, -12.31)">8</text><text class="cls-7" transform="matrix(0.64, -0.77, 0.77, 0.64, 84.57, 348.65)">*</text><text class="cls-12" transform="translate(804.36 742.16) rotate(12.98)">world</text><text class="cls-12" transform="translate(249.41 458.42) rotate(-16.12)">LO<tspan class="cls-14" x="27.99" y="0">L</tspan></text><text class="cls-12" transform="translate(-0.59 400.42) rotate(-16.12)">Once upon a time</text><text class="cls-12" transform="translate(199.66 353.43) rotate(27.04)">a midnight dreary</text><text class="cls-12" transform="matrix(0.98, 0.2, -0.2, 0.98, 421.05, 76.49)">dark and stormy night</text><text class="cls-1" transform="matrix(0.55, 0.83, -0.83, 0.55, 209.59, 603.39)">{</text><text class="cls-12" transform="translate(443.36 265.16) rotate(12.98)">spiritanimal, seal</text><text class="cls-15" transform="translate(33.12 1756.82)">?</text><text class="cls-16" transform="translate(335.12 801.82)">@</text><text class="cls-6" transform="translate(1111.12 2447.82)">}</text></svg>
