<svg id="Layer_1" data-name="Layer 1" xmlns="http://www.w3.org/2000/svg" viewBox="0 0 1600 900"><defs><style>.cls-1{font-size:100px;}.cls-1,.cls-12,.cls-13,.cls-2,.cls-3,.cls-4,.cls-6,.cls-7,.cls-8{font-family:TimesNewRomanPSMT, Times New Roman;}.cls-2,.cls-3,.cls-4{font-size:72px;}.cls-3{letter-spacing:-0.06em;}.cls-13,.cls-4{letter-spacing:-0.02em;}.cls-5{letter-spacing:-0.08em;}.cls-6{font-size:900px;}.cls-13,.cls-7{font-size:200px;}.cls-8{font-size:400px;}.cls-9{letter-spacing:-0.04em;}.cls-10{letter-spacing:-0.04em;}.cls-11{font-family:KozGoPr6N-Regular-83pv-RKSJ-H, Kozuka Gothic Pr6N;letter-spacing:-0.01em;}.cls-12{font-size:21px;}.cls-14{letter-spacing:-0.04em;}</style></defs><title>Artboard 1</title><text class="cls-1" transform="translate(647.38 725.05)">Hello.</text><text></text><text class="cls-2" transform="translate(663 427)">m</text><text class="cls-2" transform="translate(68.59 147.45) rotate(11.19)">other things</text><text class="cls-2" transform="translate(1285 753)">cool</text><text class="cls-2" transform="translate(153.53 190.09) rotate(7.06)">Florida</text><text class="cls-2" transform="translate(625 174)">i</text><text class="cls-2" transform="translate(421 441)">i</text><text class="cls-2" transform="translate(564 56)">i</text><text class="cls-2" transform="translate(20 352)">i</text><text class="cls-2" transform="matrix(0.89, 0.45, -0.45, 0.89, 742.35, 752.8)">y</text><text class="cls-2" transform="translate(868.67 868.06) rotate(-20.49)">b</text><text class="cls-2" transform="translate(877 803)">E</text><text class="cls-2" transform="translate(1309 909)">l</text><text class="cls-2" transform="translate(675 229)">i</text><text class="cls-2" transform="translate(765 253)">z</text><text class="cls-2" transform="translate(877 671)">a</text><text class="cls-2" transform="translate(508.1 338.78) rotate(-18.82)">b</text><text class="cls-2" transform="translate(599 731)">e</text><text class="cls-2" transform="translate(40 339)">t</text><text class="cls-2" transform="translate(86 515)">h</text><text class="cls-3" transform="translate(457 129)">A</text><text class="cls-2" transform="translate(275 145)">u</text><text class="cls-2" transform="translate(129 251)">b</text><text class="cls-2" transform="translate(113 399)">e</text><text class="cls-2" transform="translate(135 513)">r</text><text class="cls-2" transform="matrix(0.98, -0.19, 0.19, 0.98, 105.83, 556.59)">t</text><text class="cls-2" transform="translate(162 479)">w</text><text class="cls-4" transform="translate(-6 153)">W</text><text class="cls-2" transform="translate(1313.64 829.71) rotate(7.63)">a</text><text class="cls-2" transform="translate(0 225)">r</text><text class="cls-2" transform="translate(475 301)">r</text><text class="cls-2" transform="translate(317 393)">i</text><text class="cls-2" transform="translate(393 339)">c</text><text class="cls-2" transform="translate(545 375)">k</text><text class="cls-2" transform="translate(773 539)">i</text><text class="cls-2" transform="matrix(0.95, 0.32, -0.32, 0.95, 114.54, 494.88)">t</text><text class="cls-2" transform="translate(1139 567)">‘</text><text class="cls-2" transform="translate(1199.98 661.53) rotate(-31.47)">s</text><text class="cls-2" transform="translate(393 312)">n</text><text class="cls-2" transform="translate(1237 537)">i</text><text class="cls-2" transform="matrix(0.95, -0.31, 0.31, 0.95, 1148.54, 634)">c</text><text class="cls-2" transform="translate(1039 513)">e</text><text class="cls-2" transform="translate(1217 708)">t</text><text class="cls-2" transform="translate(925 821)">o</text><text class="cls-2" transform="translate(715 575)">m</text><text class="cls-2" transform="translate(1166.04 805.39) rotate(27.83)">e</text><text class="cls-2" transform="translate(1063 681)">e</text><text class="cls-2" transform="translate(1063 567)">t</text><text class="cls-2" transform="translate(1169 490)">y</text><text class="cls-2" transform="translate(1013 469)">o</text><text class="cls-2" transform="translate(475 181)">u</text><text class="cls-2" transform="matrix(0.97, 0.24, -0.24, 0.97, 52.51, 89.69)">Brooklyn</text><text class="cls-2" transform="translate(174.12 271.25) rotate(-14.41)">Savannah</text><text class="cls-2" transform="translate(191 271)">San Francisco</text><text class="cls-2" transform="translate(129.94 312.26) rotate(-6.31)">Bordeaux</text><text class="cls-2" transform="translate(577 215)">seals</text><text class="cls-2" transform="translate(161.95 421.63) rotate(5.82)">lots of seals</text><text class="cls-2" transform="translate(681 639)">oyster</text><text class="cls-2" transform="translate(783 422)">Mary</text><text class="cls-2" transform="translate(816 575)"><tspan class="cls-5">W</tspan><tspan x="62.19" y="0">arrick</tspan></text><text class="cls-6" transform="translate(449.14 576.65) rotate(9.89)">!</text><text class="cls-7" transform="matrix(0.83, 0.55, -0.55, 0.83, 436.66, 101.74)">?</text><text class="cls-1" transform="translate(689 339)">si!</text><text class="cls-1" transform="translate(1349 909)">oui!</text><text class="cls-1" transform="translate(69 229)">Barcelona</text><text class="cls-1" transform="translate(507.61 109.33) rotate(173.07)">Gainesville</text><text class="cls-1" transform="translate(925 725)">who</text><text class="cls-1" transform="translate(1013 781)">are</text><text class="cls-1" transform="translate(1099 868)">you?</text><text class="cls-1" transform="translate(742.57 438.68) rotate(-28.24)">~</text><text class="cls-8" transform="translate(314.87 597.85) rotate(-26.78)">&amp;</text><text class="cls-1" transform="translate(985 643)">I</text><text class="cls-1" transform="translate(167 389)">Lorem ipsum</text><text class="cls-1" transform="translate(81 147)">Poland</text><text class="cls-1" transform="translate(266 312)">caviar</text><text class="cls-1" transform="translate(0 100)">salmon</text><text class="cls-1" transform="translate(48.79 236.1) rotate(-20.15)">Cinderella</text><text class="cls-1" transform="translate(190.92 144.9) rotate(13.24)">Medium rare</text><text class="cls-1" transform="translate(7 47)">Lorem ipsum</text><text class="cls-8" transform="translate(136.37 386.72) rotate(-17.37)">a</text><text class="cls-7" transform="translate(773.12 427.12)">*</text><text class="cls-7" transform="translate(799.13 169.12)">{</text><text class="cls-7" transform="translate(444.63 658.12)">}</text><text class="cls-7" transform="translate(84.02 177.61) rotate(20.23)">&lt;/div&gt;</text><text class="cls-7" transform="translate(-15.87 89.13)">tea</text><text class="cls-7" transform="translate(334.12 181.12)">13</text><text class="cls-7" transform="translate(59.09 388.13)">9</text><text class="cls-7" transform="translate(6.64 169.12)">star</text><text class="cls-7" transform="translate(893.58 338.62)">o</text><text class="cls-1" transform="translate(-15.44 125.12)">Blue<tspan class="cls-9" x="188.87" y="0">T</tspan><tspan x="246.44" y="0">una4</tspan></text><text class="cls-1" transform="matrix(1, -0.09, 0.09, 1, 39.56, 79.51)">const</text><text class="cls-1" transform="translate(19.64 78.27) rotate(-15.81)">let</text><text class="cls-1" transform="translate(82.14 443.09)">for</text><text class="cls-1" transform="translate(233.67 67.67) rotate(5.56)">while</text><text class="cls-1" transform="translate(-0.37 538.57)">[i]</text><text class="cls-1" transform="translate(503.63 125.12)">index</text><text class="cls-1" transform="translate(815.63 835.12)">!</text><text class="cls-1" transform="translate(715.12 215.12)">!</text><text class="cls-1" transform="translate(0.11 341.12)">!</text><text class="cls-1" transform="translate(-6.87 46.62)">jabberwocky</text><text class="cls-1" transform="translate(81.37 303.66) rotate(13.27)">grapefruit</text><text class="cls-1" transform="translate(0.11 189.62)">28</text><text class="cls-1" transform="translate(152.64 554.62)"><tspan class="cls-10">1</tspan><tspan x="46.29" y="0">1</tspan></text><text class="cls-1" transform="translate(922.84 417.43) rotate(90.98)">{</text><text class="cls-1" transform="translate(721.13 494.62)">%</text><text class="cls-1" transform="translate(7.12 60.12)">cauchemar!</text><text class="cls-1" transform="translate(702.89 758.86) rotate(88.97)">}</text><text class="cls-1" transform="translate(42.08 641.61)">¯\_(<tspan class="cls-11" x="159.08" y="0">ツ</tspan><tspan x="258.08" y="0">)_/¯</tspan></text><text class="cls-2" transform="translate(507.6 173.62)">ola</text><text class="cls-12" transform="translate(426.47 115.43) rotate(-16.12)">violet</text><text class="cls-13" transform="translate(0.09 494.13)">V</text><text class="cls-7" transform="matrix(0.64, -0.77, 0.77, 0.64, 68.55, 292.65)">8</text><text class="cls-7" transform="translate(305.08 -13.32) rotate(116.18)">8</text><text class="cls-7" transform="matrix(0.64, -0.77, 0.77, 0.64, 85.55, 347.65)">*</text><text class="cls-12" transform="matrix(0.97, 0.22, -0.22, 0.97, 805.37, 741.19)">world</text><text class="cls-12" transform="translate(250.47 457.43) rotate(-16.12)">LO<tspan class="cls-14" x="27.99" y="0">L</tspan></text><text class="cls-12" transform="translate(0.47 399.43) rotate(-16.12)">Once upon a time</text><text class="cls-12" transform="matrix(0.89, 0.45, -0.45, 0.89, 200.66, 352.38)">a midnight dreary</text><text class="cls-12" transform="translate(422.05 75.54) rotate(11.43)">dark and stormy night</text><text class="cls-1" transform="translate(210.53 602.38) rotate(56.44)">{</text><text class="cls-12" transform="matrix(0.97, 0.22, -0.22, 0.97, 444.37, 264.19)">spiritanimal, seal</text></svg>