<svg id="Layer_1" data-name="Layer 1" xmlns="http://www.w3.org/2000/svg" viewBox="0 0 1600 900"><defs><style>.cls-1,.cls-11,.cls-9{font-size:100px;}.cls-1,.cls-10,.cls-12,.cls-16,.cls-17,.cls-19,.cls-2,.cls-3,.cls-4,.cls-5,.cls-7,.cls-8{font-family:TimesNewRomanPSMT, Times New Roman;}.cls-2,.cls-4,.cls-5{font-size:72px;}.cls-3{font-size:60px;}.cls-4{letter-spacing:-0.06em;}.cls-17,.cls-5{letter-spacing:-0.02em;}.cls-6{font-size:27px;}.cls-6,.cls-9{font-family:TimesNewRomanPS-ItalicMT, Times New Roman;font-style:italic;}.cls-7{font-size:940px;}.cls-17,.cls-8{font-size:200px;}.cls-10{font-size:75px;}.cls-11{font-family:TimesNewRomanPS-BoldMT, Times New Roman;font-weight:700;}.cls-12{font-size:400px;}.cls-13{letter-spacing:-0.04em;}.cls-14{letter-spacing:-0.04em;}.cls-15{font-family:KozGoPr6N-Regular-83pv-RKSJ-H, Kozuka Gothic Pr6N;letter-spacing:-0.01em;}.cls-16{font-size:21px;}.cls-18{letter-spacing:-0.04em;}.cls-19{font-size:300px;}</style></defs><title>Artboard 1</title><text class="cls-1" transform="translate(661.38 801.05)">Hello.</text><text></text><text class="cls-2" transform="translate(68.59 143.45) rotate(11.19)">other things</text><text class="cls-3" transform="translate(828 648)">cool</text><text class="cls-2" transform="translate(153.53 186.09) rotate(7.06)">Florida</text><text class="cls-2" transform="translate(625 170)">i</text><text class="cls-2" transform="translate(421 437)">i</text><text class="cls-2" transform="translate(564 52)">i</text><text class="cls-2" transform="translate(20 348)">i</text><text class="cls-2" transform="matrix(0.89, 0.45, -0.45, 0.89, 756.35, 828.8)">y</text><text class="cls-2" transform="translate(675 225)">i</text><text class="cls-2" transform="translate(663 56)">z</text><text class="cls-2" transform="translate(1150.76 703.79) rotate(29.2)">a</text><text class="cls-2" transform="translate(508.1 334.78) rotate(-18.82)">b</text><text class="cls-2" transform="translate(40 335)">t</text><text class="cls-2" transform="translate(86 511)">h</text><text class="cls-4" transform="translate(457 125)">A</text><text class="cls-2" transform="translate(275 141)">u</text><text class="cls-2" transform="translate(129 247)">b</text><text class="cls-2" transform="translate(113 395)">e</text><text class="cls-2" transform="translate(135 509)">r</text><text class="cls-2" transform="matrix(0.98, -0.19, 0.19, 0.98, 105.84, 552.57)">t</text><text class="cls-2" transform="translate(162 475)">w</text><text class="cls-5" transform="translate(-6 149)">W</text><text class="cls-2" transform="translate(0 221)">r</text><text class="cls-2" transform="translate(475 297)">r</text><text class="cls-2" transform="translate(317 389)">i</text><text class="cls-2" transform="translate(393 335)">c</text><text class="cls-2" transform="translate(545 371)">k</text><text class="cls-2" transform="matrix(0.95, 0.32, -0.32, 0.95, 114.54, 490.88)">t</text><text class="cls-3" transform="matrix(0.84, 0.54, -0.54, 0.84, 755.82, 532.54)">‘</text><text class="cls-3" transform="matrix(1, 0.02, -0.02, 1, 795.04, 567.72)">s</text><text class="cls-2" transform="translate(393 308)">n</text><text class="cls-3" transform="matrix(0.86, -0.5, 0.5, 0.86, 785.98, 496.49)">c</text><text class="cls-2" transform="translate(1062 628)">e</text><text class="cls-3" transform="matrix(0.84, 0.54, -0.54, 0.84, 807.58, 596.68)">t</text><text class="cls-2" transform="translate(589 30)">m</text><text class="cls-3" transform="translate(761.52 542.72) rotate(34.11)">e</text><text class="cls-2" transform="translate(554 803)">t</text><text class="cls-2" transform="translate(577 439)">o</text><text class="cls-2" transform="translate(475 177)">u</text><text class="cls-2" transform="matrix(0.97, 0.24, -0.24, 0.97, 52.51, 85.69)">Brooklyn</text><text class="cls-2" transform="translate(174.12 267.25) rotate(-14.41)">Savannah</text><text class="cls-2" transform="translate(191 267)">San Francisco</text><text class="cls-2" transform="translate(129.94 308.26) rotate(-6.31)">Bordeaux</text><text class="cls-2" transform="translate(577 211)">seals</text><text class="cls-2" transform="translate(161.95 417.63) rotate(5.82)">lots of seals</text><text class="cls-6" transform="translate(583 47)">oysters</text><text class="cls-7" transform="matrix(0.93, 0.37, -0.37, 0.93, 518.28, 532.08)">!</text><text class="cls-8" transform="matrix(0.83, 0.55, -0.55, 0.83, 436.66, 97.74)">?</text><text class="cls-1" transform="translate(242 511)">si!</text><text class="cls-1" transform="matrix(1, -0.08, 0.08, 1, 1323.48, 874.65)">oui!</text><text class="cls-1" transform="translate(69 225)">Barcelona</text><text class="cls-1" transform="translate(507.61 105.33) rotate(173.07)">Gainesville</text><text class="cls-9" transform="translate(907 748)">how</text><text class="cls-10" transform="translate(1024 793)">are</text><text class="cls-11" transform="translate(1092 861)">you?</text><text class="cls-1" transform="translate(827.57 408.68) rotate(-28.24)">~</text><text class="cls-12" transform="translate(314.87 590.85) rotate(-26.78)">&amp;</text><text class="cls-1" transform="translate(167 385)">Lorem ipsum</text><text class="cls-1" transform="translate(81 143)">Poland</text><text class="cls-1" transform="translate(266 308)">caviar</text><text class="cls-1" transform="translate(0 96)">salmon</text><text class="cls-1" transform="translate(48.79 232.1) rotate(-20.15)">Cinderella</text><text class="cls-1" transform="translate(190.92 140.9) rotate(13.24)">Medium rare</text><text class="cls-1" transform="translate(7 43)">Lorem ipsum</text><text class="cls-12" transform="translate(136.41 382.74) rotate(-17.37)">a</text><text class="cls-8" transform="translate(693.12 787.12)">*</text><text class="cls-8" transform="translate(153.13 395.12)">{</text><text class="cls-8" transform="translate(444.63 654.12)">}</text><text class="cls-8" transform="translate(84.06 173.62) rotate(20.23)">&lt;/div&gt;</text><text class="cls-8" transform="translate(-15.87 85.13)">tea</text><text class="cls-8" transform="translate(334.12 177.12)">13</text><text class="cls-8" transform="translate(59.09 384.13)">9</text><text class="cls-8" transform="translate(6.64 165.12)">star</text><text class="cls-8" transform="translate(503.58 678.62)">o</text><text class="cls-1" transform="translate(-15.44 121.12)">Blue<tspan class="cls-13" x="188.87" y="0">T</tspan><tspan x="246.44" y="0">una4</tspan></text><text class="cls-1" transform="matrix(1, -0.09, 0.09, 1, 39.56, 75.51)">const</text><text class="cls-1" transform="translate(19.64 74.27) rotate(-15.81)">let</text><text class="cls-1" transform="translate(82.14 439.09)">for</text><text class="cls-1" transform="translate(233.67 63.67) rotate(5.56)">while</text><text class="cls-1" transform="translate(-0.37 534.57)">[i]</text><text class="cls-1" transform="translate(503.63 121.12)">index</text><text class="cls-1" transform="translate(715.12 211.12)">!</text><text class="cls-1" transform="translate(0.11 337.12)">!</text><text class="cls-1" transform="translate(-6.87 42.62)">jabberwocky</text><text class="cls-1" transform="matrix(0.97, 0.23, -0.23, 0.97, 81.36, 299.6)">grapefruit</text><text class="cls-1" transform="translate(0.11 185.62)">28</text><text class="cls-1" transform="translate(152.64 550.62)"><tspan class="cls-14">1</tspan><tspan x="46.29" y="0">1</tspan></text><text class="cls-1" transform="translate(602.13 328.62)">%</text><text class="cls-1" transform="translate(7.12 56.12)">cauchemar!</text><text class="cls-1" transform="translate(595.89 436.86) rotate(88.97)">}</text><text class="cls-1" transform="translate(42.08 637.61)">¯\_(<tspan class="cls-15" x="159.08" y="0">ツ</tspan><tspan x="258.08" y="0">)_/¯</tspan></text><text class="cls-2" transform="translate(507.6 169.62)">ola</text><text class="cls-16" transform="translate(426.41 111.42) rotate(-16.12)">violet</text><text class="cls-17" transform="translate(0.09 490.13)">V</text><text class="cls-8" transform="matrix(0.64, -0.77, 0.77, 0.64, 68.57, 288.65)">8</text><text class="cls-8" transform="matrix(-0.44, 0.9, -0.9, -0.44, 305.02, -17.31)">8</text><text class="cls-8" transform="matrix(0.64, -0.77, 0.77, 0.64, 85.57, 343.65)">*</text><text class="cls-16" transform="translate(819.36 817.16) rotate(12.98)">world</text><text class="cls-16" transform="translate(250.41 453.42) rotate(-16.12)">LO<tspan class="cls-18" x="27.99" y="0">L</tspan></text><text class="cls-16" transform="translate(0.41 395.42) rotate(-16.12)">Once upon a time</text><text class="cls-16" transform="translate(200.66 348.43) rotate(27.04)">a midnight dreary</text><text class="cls-16" transform="matrix(0.98, 0.2, -0.2, 0.98, 422.05, 71.49)">dark and stormy night</text><text class="cls-1" transform="matrix(0.55, 0.83, -0.83, 0.55, 210.59, 598.39)">{</text><text class="cls-16" transform="translate(444.36 260.16) rotate(12.98)">spiritanimal, seal</text><text class="cls-19" transform="translate(264.12 802.82)">@</text></svg>