<svg id="Layer_1" data-name="Layer 1" xmlns="http://www.w3.org/2000/svg" viewBox="0 0 1600 1000"><defs><style>.cls-1{font-size:466px;fill:#e8f442;font-family:Futura-Medium, Futura;}</style></defs><title>Artboard 1</title><text class="cls-1" transform="translate(-174.44 334.48) rotate(-35.14)">*</text><text class="cls-1" transform="translate(552.01 353.08) rotate(-11.86)">!</text><text class="cls-1" transform="translate(518.58 826.93) rotate(37.95)">w</text><text class="cls-1" transform="translate(657.57 233.93) rotate(3.34)">m</text><text class="cls-1" transform="translate(1059.57 625.72) rotate(17.89)">&amp;</text><text class="cls-1" transform="translate(267.79 246.96) rotate(20.12)">a</text><text class="cls-1" transform="translate(941.4 362.43) rotate(13.42)">e</text><text class="cls-1" transform="translate(1186.7 894.92) rotate(-74.82)">?</text><text class="cls-1" transform="matrix(0.59, -0.81, 0.81, 0.59, 322.2, 738.46)">@</text><text class="cls-1" transform="translate(241.9 1032.1) rotate(-6.37)">4</text><text class="cls-1" transform="translate(1336 625.84) rotate(-13.29)">~</text><text class="cls-1" transform="matrix(0.66, 0.75, -0.75, 0.66, 546.11, 408.83)">Q</text><text class="cls-1" transform="translate(1130.56 799.48) rotate(-35.14)">*</text><text class="cls-1" transform="translate(1015.53 826.22) rotate(91.24)">y</text><text class="cls-1" transform="matrix(0.98, -0.21, 0.21, 0.98, -89.11, 978.91)">W</text><text class="cls-1" transform="translate(1259.38 599.1) rotate(25.14)">W</text><text class="cls-1" transform="translate(1537.11 223.84) rotate(-71.6)">r</text><text class="cls-1" transform="matrix(0.99, -0.12, 0.12, 0.99, 1276.44, 982.91)">z</text><text class="cls-1" transform="translate(494.1 943.58) rotate(-9.09)">i</text><text class="cls-1" transform="matrix(-0.83, 0.55, -0.55, -0.83, 1176.47, -135.39)">h</text><text class="cls-1" transform="matrix(0.3, 0.95, -0.95, 0.3, 485.65, 387.68)">c</text><text class="cls-1" transform="translate(-39.62 241.75) rotate(9.67)">g</text><text class="cls-1" transform="translate(208.12 271.65) rotate(-11.58)">J</text></svg>